<mxfile host="app.diagrams.net" modified="2020-10-06T11:11:25.907Z" agent="5.0 (Windows NT 10.0; Win64; x64) AppleWebKit/537.36 (KHTML, like Gecko) Chrome/85.0.4183.121 Safari/537.36" etag="nqGSNuSyaHQTlcRtYdN7" version="13.7.7" type="github">
  <diagram id="1WrOuM4ASoEOzC6ZMVqX" name="Page-1">
    <mxGraphModel dx="1765" dy="575" grid="1" gridSize="10" guides="1" tooltips="1" connect="1" arrows="1" fold="1" page="1" pageScale="1" pageWidth="827" pageHeight="1169" math="0" shadow="0">
      <root>
        <mxCell id="0" />
        <mxCell id="1" parent="0" />
        <mxCell id="lnRaoJyihxXtsZaFXOxk-1" value="Actor" style="shape=umlActor;verticalLabelPosition=bottom;verticalAlign=top;html=1;outlineConnect=0;strokeWidth=3;" vertex="1" parent="1">
          <mxGeometry x="-120" y="230" width="30" height="60" as="geometry" />
        </mxCell>
        <mxCell id="lnRaoJyihxXtsZaFXOxk-4" value="" style="shape=image;verticalLabelPosition=bottom;labelBackgroundColor=#ffffff;verticalAlign=top;aspect=fixed;imageAspect=0;image=data:image/png,iVBORw0KGgoAAAANSUhEUgAAAOEAAADhCAMAAAAJbSJIAAAAjVBMVEX///8AAAB2dnb8/Pz19fXt7e3j4+P4+Pj09PTg4ODT09O1tbXo6Ojw8PDMzMxycnJRUVF9fX2EhITIyMiqqqrCwsJXV1c9PT1fX1+Pj4+hoaHY2NgoKCgxMTFHR0ciIiKZmZkUFBRnZ2evr686OjobGxtCQkILCwuJiYksLCyTk5NKSkokJCQcHBxjY2PU34P+AAAMC0lEQVR4nO1d6WKyOhAtIiKLAgIWd0CrVtu+/+PdWpeiTGYCBEK/6/nbGjmSZZYzk5eXJ5544oknnnjiiSeeuIfa7ff7XVX2Y4iGavjr6WTkdRwn/TohdZyON5pM177x58na1iR1t5v3VaLkkXy+b7Zuurd6sh+zHHR/f4R4QUiWo1CX/cBF0NeGo3dOcr+Yj4Za/y/MWtu00l1hemfsvtamLZsADtsPorL0LogCv7Uk1eHUmVej94MPZzps42zVg85WAL0ztp2gbTuPFh8/hfE74e140GSTysD2VkLpnbHyWrIgdcOpgd4ZqSF/suqGVxu/EzzJHNXZ4a1Wgt/2zmEmcWPtxeK2Tza2sTTDNRg3wO+EcSCFnxHVPUF/8RYZzROMRZgv/JjHDfMzj43yO2FpNshvME0aJ/jteUwHTRE0OxL4neA09BqtjSSCirKxGuA3iBNpBL/P/7j2mVqjEcoHp+ZzQ8Ie+oh699RQNr0fhLXxUwPZ3C4IarLFu7FsZjfE3ToIahPZvDKY1BDisOv1dItCfITD7lSMgwrGriOYoibLUGOjI3Si9mWf8xCcvjiC3TYS/KYobEdVRzJ5JO+vy+NxAf1pJOhcVMFzcO6O3eUiqZWcslt2DoE1nBmzMP4C/h6LoRjkd9HPdBp+f63pW+v4q7Zwhhtb5u9a6wGb3U5IiMrKM9j69u3HU20z3NfhMY4es/wasBvMBTiMw/zTfzxa9117KPg0SeJefqccRPl/fB1WJdgDYqIp8H+qHotLPr1N4YPAAuKX44rh4gH0bljeSzgWEkHdTFn7hwqthk41r38KPQL738O0cppts0dsFfBcnlYhCHq8EfIBtbxM4QdzD11XFvihCh6xBh4E+Pal5bIZyWIZOd4kngY3xBMvdTf5Of1l4bk0Ff5ZyluosLFGzXsj/rh+tetNQ39ozgx7oN8tLn1gG+bQt6be+Fd5s5qS/gJo2ihOWYLgIlQ2pB2hzyIliQ6h0bMHxD+rA7tnmMHoxHPMkShkOKkll6L5Co7GYwzqg65exKBS9W5f40n2MkJhr6XibyyPyS8zmCjo8DOVczPgOaooUpWEKsusKDFPZ0t4qIVUCYjKSjsfZ0WH6u4ZQ0VShTwqMx62LzpPfdbBPRIYOygB1tpRdgX3B91ljcQ0GpsBO6/gFhPerJkD1Zc04MKM+WDKutBA7HEq+2PV0GM/GeIR5MHaZtrNcM8/jJ38SYYJ/0GGRQ9bzFAZ8Y4ywwJLbWa44T320TRamxkqE75BZmiuXjJDA2XIabsxzYY2MCSUBFwGuIFrKpvQ7CDAf35lzKNFgaM9N8RSVckqFXnmeAFQ7DyLjlTLW4XjDpnHo10fk4gGbqX6hywf/4aEjGfoB2oMqT7+kHo6ehUNyLI6qc4FLQh5p4KdPjlER6aDiB/4P6A8YVJ+n0jQlGdAK+vG+ABdcgBLro/fpecpHrBh+/YXeI1prRkwyCIW3NdnhmcuWBYO2omGCsgK7uFiH+8Tn04q5erEQEsJhjtsmhIWmzKWPUdPAKQT98AsN+LneSsWzqoJKvUSkWSbSqxiYiNuCuEH/phb9nYfEu9fatopA0B1ksWcbXYd8I1m2yAJFMSxvzswP0k4TpLD3RkQxnOH9TkbN9lW7WkDQEjOxywPL4R1AFdwBrKagIYzXLBm2xRfhnJN7nvgrj5Tsog7v24bTvsriIAUY6sBNWy/qKtQpRRsnCFD6zbDze4mi1RJaPg0dWEHwUf34GWbluFLF5eev8O2CW52j9q0DEkfATa+ce+3FUb3L0ycIfi0Ol6a1h6D5gcz3KwBRfx44c9CckbmET18WwRD35Ci+xdj6eGLexCFWKD6e4ZuwE6behp9o4ubpq/QCzFRifZIfrOfe+AVuyvo9MZTAnHDBEgQxwW0bfz7DPGMRQvCiPcgGEJGDf6Rv8YQOL6JYvu/xhDwhHTc5fprDAGRKJH8/WsMD/nTjSl7/psMJ/nkBeFx/TWGgOybYBg3ToEAkekc5Rn2/xZDlYhFAYJ74h1O2hSHeiEtb+gdEjuNJ7cIIYcBkc8H1qGO/yhpS7qlXmETScRJ/rQgghhcor8GYRCKA0AaRSzdbavCpd/+Op5jgWwaFd9+523Jjl5AxNqUNbAzEmnHlsXaKIbQ4xKyP8na4EdQqpHiPr5yqKW9VlkQpzfM0EzQj7TruBgQCkNQSEvsTptWHRca0Z9iAUUTDaIlYquOC7zsQlGO0PugrIRWbTVUf0NwTRHOhWSR/gOglkpZwLW8xO9SofuEeBAEFViqQB0xLcrNILWyZ8BLKiSaBHFX99UPSgr9CVtgJqFM/GiYBgJKYcrwE6jNtD3TlDJKWeaJinv5FdrAiAap12fVPFM9ZpOWxGr6pFw/ZnzSotpYtSRoGiTEc36wrBO8PFZB5cUNQqeOe3axLCkRf5Nzk8YDSK2+kjLfBNnFM2qBMKpPNzBkN1dYU40BP1ugjKKU+oqyYjsJNtnDMpJ+GyNVxfuNDeKs01fjSG5PQ1vPCl4WQjcln0s2bDQiTnoCuxiBdp2/kUrdbMhq9RPQlcRxuabUY59jjioLdASe3vkSo98ccwyfpHxDfEiLuhElLxcQ2z3HQlYiSaFTKmd4xoYYhUgenyFHitmdcDV/pSxLjoJ3RU5GGG6cngc1wfqU9X2G2IsJeEC3s7g8GZlfoZsq/CBt2HzTeHv703r03qOT+HH8cpzU3TwsArfRKH+P9Akv4Gjv/ZDtdg/W7NuK6RphMLnfqz/CxkxU1We0Gs2Dpzrrrs18nDVDDWuUda+SuKFTQ5ty32POJTfQMzP+sQlGf3h3JEWNmDf+F3+L8D3XvPqNEgD1tPowW7Qw39d+bPS9AhfRM4tH76HefEz4SLh7jXV7/XGhFu/MEucHWJc4wYZRYxHeRR3f/boy/KpG1O0+4p1bMHKp6D+yqkjM+63NtewatlXNjMmIzAOgaylgXKQ1CfPlzB6MfDcYiq2p6ZuWU/gKgl2B6rMLAfZLz1XULvaWMKdq4Acjqi9btVd4S+4s2JMvfzlLMh6tqx+QqhmM0pLX1hQyJC8rEdmbLGASrZZpXOFN9q2DM34tfc+JV+jLrk4UkvdlOCGfmzQo6XgY1e5VKvatN2csZX+O+VVFVvzdl1a6I7OoGsa+5uhcn7UYmeH10m3b8SJPHF+FJ85tnX0ybw4JYZ1uUlpbRCixMZTQv2YKbVOWwQ53YaggmLaSsgyBGhkSGRN7y7zhCdrXCzQOfwTRuIKNcr9qJjDyypgDapg3/Ktchca+3AEHM62No5v5QRmtNKD66EpdXjjDTY8oqxKZZZ6eHSL1kux37RaV3Kl1UWP7B6+lDf9syIadONTiaLmZr1bzxdbtVNRoAjf1caBCUCzTGO0dG2YwtNZry69ue+cifTzAUzHEF2Z+Uq+JngM60WwOglPJOQ0z9nUjAVLeuOgvKl6AmI2efgkigYIvqZDBomq8L9seq4lAfuGbh6uLmDJt9pvQJhZlWGWXuSJjvTUQxi94Y6sn5JF+JYsNKKKKMUwFBaRvjmkDe00hhswOkIVxdfjf628WVYQhWBhTDvpVH10s2FMGBRguRR7QVxUEZ+ajAvgZCq7bvXr8taswuBkKL0y+UhR0XzsTvAyZDmt52Ofv3tVcwsbJMKpDInmhWNkOxMHHMK1HeKadt5ttrUcGF8NOXQKCwfnQYIWlhICH4aS+7a5/PvqrhWJw0Ax30zpd8Yu7uAP6aggCybBk4JAfl57fr8OaTg2KYUWPngfDi7/ozWoRKOAMEzHeEoHe9SEmwxq2NJThsiGNef96hULiBL7obQ1j2GlMLKhaN7d/k+4Dvydw6rAZLsqmlkthlgmJJZtjlHa80f6Milsdk2E6a7Zah91qq2IcgMVQwkVaJiPDEFUbFmboyOnx2wHzROIZvkXSOm2HEaCpEc4wWkvs/WPHefGEYIbjQG7nH9XMpaWFMnQD+X1/BsNlbQxdS3rF6g8G66QWhuNhexri9A9vohnunFY13np50fYbQQy9k9ghatWdNhf09kchDE0nPbSmh8oDjPinLqIiwxe9ha/vhp7VSRpIbUiFZjKFjP8M2jzHnnjiiSeeeOL/i/8A3jW5xjoSgjkAAAAASUVORK5CYII=;" vertex="1" parent="1">
          <mxGeometry x="52.5" y="212.5" width="95" height="95" as="geometry" />
        </mxCell>
        <mxCell id="lnRaoJyihxXtsZaFXOxk-11" style="edgeStyle=orthogonalEdgeStyle;rounded=0;orthogonalLoop=1;jettySize=auto;html=1;entryX=0;entryY=0.5;entryDx=0;entryDy=0;" edge="1" parent="1" source="lnRaoJyihxXtsZaFXOxk-5" target="lnRaoJyihxXtsZaFXOxk-6">
          <mxGeometry relative="1" as="geometry" />
        </mxCell>
        <mxCell id="lnRaoJyihxXtsZaFXOxk-5" value="" style="rounded=0;whiteSpace=wrap;html=1;strokeWidth=1;perimeterSpacing=1;fillColor=none;" vertex="1" parent="1">
          <mxGeometry x="-160" y="200" width="120" height="120" as="geometry" />
        </mxCell>
        <mxCell id="lnRaoJyihxXtsZaFXOxk-12" style="edgeStyle=orthogonalEdgeStyle;rounded=0;orthogonalLoop=1;jettySize=auto;html=1;entryX=0;entryY=0.5;entryDx=0;entryDy=0;" edge="1" parent="1" source="lnRaoJyihxXtsZaFXOxk-6" target="lnRaoJyihxXtsZaFXOxk-7">
          <mxGeometry relative="1" as="geometry" />
        </mxCell>
        <mxCell id="lnRaoJyihxXtsZaFXOxk-6" value="" style="rounded=0;whiteSpace=wrap;html=1;strokeWidth=1;perimeterSpacing=1;fillColor=none;" vertex="1" parent="1">
          <mxGeometry x="40" y="200" width="120" height="120" as="geometry" />
        </mxCell>
        <mxCell id="lnRaoJyihxXtsZaFXOxk-7" value="" style="rounded=0;whiteSpace=wrap;html=1;strokeWidth=1;perimeterSpacing=1;fillColor=none;" vertex="1" parent="1">
          <mxGeometry x="280" y="200" width="120" height="120" as="geometry" />
        </mxCell>
        <mxCell id="lnRaoJyihxXtsZaFXOxk-10" value="" style="shape=image;verticalLabelPosition=bottom;labelBackgroundColor=#ffffff;verticalAlign=top;aspect=fixed;imageAspect=0;image=data:image/png,iVBORw0KGgoAAAANSUhEUgAAANwAAADlCAMAAAAP8WnWAAAAYFBMVEX///8dwesAvur2/f4Av+qw5fYAvOqP2/Os5PbY8vug4PXv+f1q0fDe8/tdzu/M7vnC6/jn9/x01PG56PfS8PqN2vN+1vJMyu5iz+8sxOyY3fTG7PkpxOyO2/Pz+/5Qy+6t97r/AAAHcElEQVR4nO2di5KqMAyGl1ArXsALCIIefP+3PAK6olBp2kDZmXyzc8Y9zGB/Wpo0Sbs/PwzDMAzDMAzDMAzDMAzDMAzDMAzDNJSreH1Kt+c76WkdJxvXDaJitd56EkCI+4+o/wWQIioS1w2zJt5Wsrwulcpo4btunzm7SlmPsF+BIKO960aaEVy/Knvq89Z/r/vWAIPKGgCKvyUvELrSanli7brB+qxyjLRa3nXnutGapBIprUIeXTdbhxDdbQ3CW7lu+iCBmbS68+b+5qXm2u5v3tZ1879ys9F2V5fN1yj4+bDVHlB3LV2LUGGtrZpWZrpgMJwmP9Tls+y7zL7fGnWuhfSwpdF2V3dzLaXDkmJMNkDqWswHOxOXS4WMXct5o6Qakw1wcC2ojaXx/mRWk8qCVtu96wonOg5hcrlckrBta33aQVmrm3hgbvbLyIMX13NxaQzukV7cpPYgOeXyM0ZXBSDzYvUTUs6UT+RlImWHpacMZAnIsxG0ed40c0oSSfphNwxMENFcZRrRx1EYvevKrZNeq4GRA2KBq16rEOcxpfnEfgcWGHHdmqCixmOIGy8aFoxhvXCMNqWc3Gvz5Eg+mFX8kYqRxuUstHkiGkPbaRba7upG0LaYwftWA/S5kWQu2jwIqLWNsPQ0RZDHwaIZicuItZHHQ6yg1VbOSpukTWnRxENekRa729HGiWjiIRDsHiSplTpaW0Azm7TatLYTR7lgXdGYODpxlFkDojzULMVtiHyTWYoriOz3LMXlNNpmOaGsqAw4nTg6U0A1KgnF0RlxqlHpQUgkjs798unWcdntieUDo9L2syP0mcUTu7vQLXnwI0i0NbR/ETTigK7C9Igu3n297kG7HYLsnQO4FTTWAP16tDW0aiV9QTZbNpsrtgSmHP3FU4irBQKcLG2Cj55PphJX6zuHPxYc5izuLk9uLVJa4bTiRIb9PmFReoP3LG3Eyb1BQgJy07GZTCmu7gR8ClCYxqDJeu5HQ1yTV4zxDp+hXTd455Jy01AWcPYfnzcHgN3rQq+4Zwes8R6fWXm+QYyhHZ4Ur1+G45a/uXyDoI1RibemnWu7jaDyJ5UXHryy3WhtVXm+gTqtO+fF8kEhIH1+XkaQ/V74p7qwfKprvTgmqQmR40emTu18u/JFthznjwlFNdM879IyWHht1XuHFqcT+W6nqaWWKYDW4/gV18rkn0xcGPyWJp0RQi9uJ5/TEUYlttBhNWHPLV//V65X1Rvkh4szpohOInyVcq2z8ZlMXP+o8v8hZhft8qJDqrvxmUacMvCz0e87WCru8Y6f6o8HInGgGFR7RNdpFU/FmCgOkThx6m8LJtKhU495RllRHXHDdu7edb1OBq5yaTDWfrgizUy2CB4sQBS/n7fidSEQYqm48Hsb2ffYkd7KUGmYQRy27R+Ltn+sdaFulIC8z0ytsZ77d3OwR90OiMiWfeNpg3s/KsS3td0Fpy1dWBPHu/6nHaYmRR2gdqCRS28YYwNKuTmEuyDV8yC6TVqo7ouNU8IYhwZFUr2iHUY9pWB3B6sMrw0Hy6yZKn9XWKQ9yLCrL1Ju+ME/sxF6bmObEVQUZN7Qz2yEmlzbjlOsDS4G1pt8QrF94zyFMTBIVZPWYdUQVNH1DSeT9LfopCH84Hhcm58TgVnfKMX1PHGTZ9ZZPseNN2XcofbS3qMxD/CpuPpG7ze5SAFRBEIa7r8kqcntWRgahOi9ji3IRb65z+a5MCsWoRiUvdEYs6NL3ofASjbO5g6MbIS1iXu0qeOAmZYKvcV5L9C4LCUY7QsmONKnFtfZLG9g5Greuii06rkzUaq8K860Ou898WfzzpFtYeuKM35sb9G03XO2xK/z0E67WlxnQjGupHu/1d7UzhV05YFdz9l8vL+vxv0gTQN8qozwuKKu22SzXUfYV3ei6+e+0Qk02JgYsD2nhHhnfafCG1+20L6b3X69lUe7y6tzCoCVOLv9zXTT5JPPb7D0fMwrsEJ0udcQXUtg69aZjswT/RkdPdVS1qdQ3gzmzMCy3rmXnhyd9T1BYL2SgHgieXDtfhNB7EKeEZWdm2Kk00dET+rYqPTjA4BUM3oSR6Odh9MXSiVaBMvjYLCvjAcOvrdrQV8hUUm1BxDyf2p9h/0pH1GZpwo20h1DJqptDXH4Nnv64SU43SySN9r0PlSykvGK5s9i5NntFt1uWX4VVVZqjHn/E0VJsFlobwD7rTtIeuxADT4NMj+UcSma+dIpXw6JJNvk6IwvudD4r3fd15UX0XnZrvhePTTKcaIT8n1dMpfjr4wYLD4gita7QA5u9STKszhA5/hx0vPOJ0TvaHWDTVAzQLcGbQZnWGIRQjth9uf6DrXBLJnWkbdF6tXbP9mQB0rHA3J0Drdwd1QzCmEUyD/cXB7XrImAk2H2bOfsDHE9BIjC4s/1JGOG4OwAgMi2pq5cRBMFdvQBAdI7xjR/YykJ0oxs+4A1XnYsYuraY38eEKtiGIZhGIZhGIZhGIZhGIZhGIZhGIZhGIZhGIZhGIZhGIZhGIZhZsZ/JZ6EKEiU6M4AAAAASUVORK5CYII=;" vertex="1" parent="1">
          <mxGeometry x="285" y="202.5" width="110" height="114.5" as="geometry" />
        </mxCell>
        <mxCell id="lnRaoJyihxXtsZaFXOxk-16" style="edgeStyle=orthogonalEdgeStyle;rounded=0;orthogonalLoop=1;jettySize=auto;html=1;entryX=1;entryY=0.5;entryDx=0;entryDy=0;" edge="1" parent="1" source="lnRaoJyihxXtsZaFXOxk-13" target="lnRaoJyihxXtsZaFXOxk-14">
          <mxGeometry relative="1" as="geometry" />
        </mxCell>
        <mxCell id="lnRaoJyihxXtsZaFXOxk-13" value="" style="rounded=0;whiteSpace=wrap;html=1;strokeWidth=1;perimeterSpacing=1;fillColor=none;" vertex="1" parent="1">
          <mxGeometry x="40" y="400" width="120" height="120" as="geometry" />
        </mxCell>
        <mxCell id="lnRaoJyihxXtsZaFXOxk-25" style="edgeStyle=orthogonalEdgeStyle;rounded=0;orthogonalLoop=1;jettySize=auto;html=1;entryX=0.335;entryY=1.01;entryDx=0;entryDy=0;entryPerimeter=0;" edge="1" parent="1" source="lnRaoJyihxXtsZaFXOxk-14" target="lnRaoJyihxXtsZaFXOxk-7">
          <mxGeometry relative="1" as="geometry">
            <mxPoint x="320" y="330" as="targetPoint" />
            <Array as="points">
              <mxPoint x="-100" y="370" />
              <mxPoint x="320" y="370" />
            </Array>
          </mxGeometry>
        </mxCell>
        <mxCell id="lnRaoJyihxXtsZaFXOxk-14" value="" style="rounded=0;whiteSpace=wrap;html=1;strokeWidth=1;perimeterSpacing=1;fillColor=none;" vertex="1" parent="1">
          <mxGeometry x="-160" y="400" width="120" height="120" as="geometry" />
        </mxCell>
        <mxCell id="lnRaoJyihxXtsZaFXOxk-17" value="" style="shape=image;verticalLabelPosition=bottom;labelBackgroundColor=#ffffff;verticalAlign=top;aspect=fixed;imageAspect=0;image=data:image/png,iVBORw0KGgoAAAANSUhEUgAAAOAAAADhCAMAAADmr0l2AAAAkFBMVEUaGRj///8AAAAYFxYRDw4VFBMLCQdPT04TEhAEAADQ0NAODAvz8/P4+PjW1tb6+vrm5ubs7Oze3t7IyMjBwcHCwsKhoaGcnJyvr6+oqKiysrKLi4tqaWk6OjnZ2dl/f35IR0d0dHNZWVktLCsfHh1UU1MzMzJAPz+UlJNtbGwkIyOEhIR6enqPj49gYF9CQkGr7M25AAAN90lEQVR4nNVd6XrqOAw1ysLahZYulFKgtHQd7vu/3WRhSSQ7iW0p0PNv7vQjObEtSzqyrDot4OL68u5p+vA5Wyx+fxeLn/8+7x8ntzfjNp6tRH99NHicbTewRz/OcfgHWK4eJjeiryBGcDz57zXjMIyUEUEvI7te3Q+uhN5DhODN41c/pRaYqZUQpTTns8lI4F3YCV5MVsnbxk25HdFLSX5ecr8PL8HxdOlErkhydcf6SowER9MPgNCZ3A5BMl2/bvneio3gJDEpPV92OyQcf7hsKw/B61liUpjYZQiS9fjE8mocBAfJ4LmvOxNCgBmDK+BP8GnNO3hHJMP45T1TfQlOe1CxkXsjhnfPjcOP4DQWpZdiCO8vpyL4pASWHkUI2+tTEBxsxEdvjxh+L9omON6y7XpNAHDfLsFPiFukl1H8HrRHcPANLdNLEMHKJaRyIfjb2uIrA2DSBsFBeILhyxHA1noQrQn+nGj4csRgG2hYErxen2z4cgSwkCT42OreoAdsrFxwK4JfJx6+HKGVrbEgODr19DwAfiQIDvzTEWyALj/Bx1Yc66aI35ouxKYEf85leu7Qg4ZxYkOC2zPjl+4XzUxNM4LLs+OXAKZcBK82/VOT0QI+eQhefLcdGjVFk+2inuDoTShpxoAGflstwZE6n+2Pop5hHcGL73Pm12CW1hFcn+/8zFFnaWoIfpyrfTmiZreoJvh6jvsfRvWOX0lw9Rf4JQyrvLYqgg9/g1/itVV43hUEJ3+EX+J5v7kQvP4z/JLoyRwfGgleRafMntnCvB0aCb4LbRBRHEu4DkZTaiL4KTNBATZfq66E4m0yNAaCAxF+wV51f+JXvXtrG4JXIgmYAA6K+9WcnSH8WhB8FVmAUKgouKqq0XP8eW2JlJbgo8gELbvF/LtsADoZWEdwLGRgysrQN/sQxq8NCXZFQqQ+WiNT/s8ImuIoDUGZCVpagSmu+B+jm6SU4Egmhd37hx/0y5+r6z83ILiVcWHo9LkRmClAKhUIwVuZCRoA+ZKdf/w+W0TiCkKQ37hlgP8owSeJIXyoIXgvFCRpXUWJ1Q6osh0RlPHRlBrqtqjOfwJfs7+qJLiQGkBtcYSIR4G2IyX/xASRIWh5FXAphu8VBL+EolxTKZ2IyS5vFSWCYmkYrRucPV7AZocll6JE8FloAOOVgZ+M0S4NYZGg3AAaM7MXEo8MlwaCK6EB7M1N/ISeWfygBYIjsQGsOOJxKfHQ4VZLcCZEUOeGHrGRqH6DYxV7gaBUpU+1RinhkKr+Ufg9EhSKc0ufUweR73pMjxwJroVS9SHSDcbI3xepoTqqogeCIqs9exbK5t0H5f8W2Zyib0JQao8IhmhKvuGouyuiVewfsicokALaPQnNyAHEX+V/EdEhD87TnqCciUEBaOLPY8/U49BvxXMRwaVQOUyM8lypb4ZjCxGpfO9d7AhKBYIkzZV610cLkEPEhdrnENTxuRKIsKiV5bQwa5EoZrcQdgT/CR0XwFU6ue6I562IGrmbo0p4hqIB3KUMsOWRcDJ2czQnKGVD+6gYcB/+YTMjIMTs3bWc4Fao5A4LLnsiOAklsgvnLlT+JKEBLIXWpamI04gLgaLpXK/LCArpEaS24+jvxtvy/5EQYoLwQFAo1CWRbsHfxWZGQIjJ47SMoEhUTWtViysNu6gSDmm2R6UERVJbigouRVsZ9dDoCsS9mVev5JbgEK2z8m6HzYyAEJMtESXz2ykwhXJIjelL+BrpIkwJikScVGxFITWewAJ7cWrFU4JCA4i8FbyZYxMksFDSfJ6S2YMUqfsh7lgQoxF+Y3dIU0dDSZUuE8GF7EUkGyUwhBlBGRsDqAsMzdphWVtgt0qsjBLytEMsuPzSoBabGf7EXjJJEoKRSM4HCS66eAGXlrywD2HiLymZUIW4obqIk/zRnNtlTAyBkjGiMKszMdlfoWiDXYjpLROCdyIEkeCin31YtuB3SCEhKJEuQKUcxspC/B3YhRi4UCLBICmfNjwDz2R2IQaulURtDImFTEktYmbemd1iGCgJV5uU/BnNIzYz3AYBJkqifhLnI8yGmqSlGrfNbfgmUyUQS2B9rCpnhs0MsxADnxIESd1PxSNwhQKzEBP/KH5pp7dpaGJSEDPDK8TEK8UvkcMjeufKKlTstPIKMeGz4vfUNHU/T+ZeZSE+bsAqxPReFbsLr637uY6MM8+kX7Ag6ir28hFD3c+76Tn4g7BGN9GH4hYfiQO9hzFxgKc0pxATzNkJmvsS3Bm6zmEzw2kVgg03warSwrG+ayfJbjBWfPATrG4Oou99hc0MY5qPf4piNxThQRfSYqGbMe5NCPJaUSxsEmj76+FpzZfIjP4xb/T0eBvGaEMfiH0fPiGm1+V11XANkxa0xyXxXtlSteFWscpWpDuPdkVOyRrDaXA2IWb4rFgT5lhw6eh3xUvcCCHGh/y5hJj4lzUexAetE4NPEqQZLj6wloa+DJcQ05+xEsQbWrplA84g5vgtPxbPba55BQ+qs2ELT3ofiEVmwPrf2j4h5QiKVCUyCTHwqBgzdeSES55y7elPR94MixxwmoMpioM7xSdaUTd0Zy0DkkbMcNUtkCB6KY8QA5eKrzUOOWh99CmBHuBPUczU40JuHiEGxoqvlJIctC6klGGj3REnxwiKbKEsDmkqvnB52+SgdclHCvVnCK/f9tEtcYI4NJMgSghy+WrElJRd5sDQg/DQXRC7sRzvFb6mEjYPQXrQGs8xWGkZfu7+juTDGcw7/KQEeTZCctCahq3woT2rfLuLoLCZYRBiklmjuM6Wk4PWmgEYElcnwzjvMU8+UehtZpJpr5j0DrKPaaOUyHDa9Tn9Y1Lc5v9iMEoJssQmxEgaonLDcdD7dCFiM+MtmwR5pRNHREhCVuM2ZujDn6Yy8HkR78WTlmymto/h9BeZeubMWKy0qe/RHEjGyneLTl3ElKC/YkXd0Io2HJG+w1tnBcRn9RRi0q05JegfXZKVVT3tDcnTRwjJv/i91ign6J85JIJLjQcP+uziC/GGvN4sCzKV988oneBSt6xhrY2CRzjn4SXEZPMqI+jbt4akluqdkLA+g5rCK2ubvVZG0HMRkuLkJl8saHYfnY8Qkxll5f2dNHU/zXZWwN61Dh5CTN4EZXf6zGsnJIJLwyQBzBtcfu3+armtzgl6tRkkDkjjcqUhzmhr4J5Ryb3HnKBXZELMRXPnNqAlJxjOjuTO+diFqR4ESUrTSjoxdOZ1/LUidqrjjqCHt0YFF6uvBcuaKwVdg52d07Aj6GGsiOBiGcbFYc0ltG5CzN493mdSnAkS/bnTs3yhqOaKKLddev9ee4LO+W2ShXCYUnoJag+3yqC96dsTdA29SEWrU4dZ0Dav3MPl4x+SfIdkn+3E2r8anl5ueQaDBJXDRYg5eFcHgm4bKo10HTNFBgkqx9zeIT3oCAeCbhsq7Wzr2o7RIEFlsBdijjrCMR/ttKESwcUjRWeQoFJYO6TH+XAk6GJmyEFrr/yOQYLq2AsxBR2hoCg4ZHjIwvFLZRokKPt4ruBdFQjaz3Ta1do3dDZdg2U5RwumT7n/ikZN8K9vMUhQdgai6DgUCVp/fiK4MIip8E8nQdkt7WIEXlL1LIeQdrblOPQQ9zUS1IdNSULpUsISQctNmsTjPIdMNBKUnTta2rvKuqzVENLOtlwFWCRRbpXhLsfQZYJWb0g/NNtBNixBWX34cg5MOf8SdUMZq6PLElTXZmmj2AsRtNgLqYLCeZY0OqajRlbXHAcow4BrI9aNzVW07JbBfFsazCfpq97M7G5Rx64CJmgxzaIQwZpDNUKA6A3Abt6TeiJS3SJ05YsbAmurRbxjQlCsnXgroMca6EUQUp04WwE9l6K56UKoy1ob0EhyGoJCLZBaQIhrqvUExZrei0N3NlN7GUvzzfCsoE1baQn+pRtqjxiS29WMBP/MHcpFGO5TNtwXZOXengcMEo6B4IXU5RNiMCRzjPfwytxTK4eQlDvWEPxjy9B8obn5sm/9geIzhVm6qbiufS3U318AFcJNBcGRucPGmaGqZqqCoEArPhnE2h2+AUGZnnLsCL+rClEqCcr0oGdGVN2boJqgVH9jRgQ11zrVEBS7M5MLQV09Xx3BzuqsGQa1hcO1BDWNC84H9fwaEDzjMWzArwlBfOb9bBCZb6a0I3imSZqe/rCeC8GzzJUOhxXVX7YEO5OzC4Bhbbr61olg59LQUutUMLTIcCfYGX8L3DvjDCBluN4ECwfCT46ovljfhWDimJ7HQowbHLdwIti5xZ18TgLoNjMvDgQ7I9zJp31E1a3pPAmm0/S0eQyIG3gvPgQ7l8EJBzGoKJrlIpi6pqcaxH7NCQsmgp3BaQYxgueaU0BcBFPvu/2cKUQVdfncBDvXy5bnaUzr+0UJJu53r8V52oPXRqEDJ8FUnmmJYgSbRke2uQl2rmZtUIzgzd528hBMPJuFNMUIlL4FTTsEE4o/IOiCh7D2o+dPMJmoyVqUCYZjWOr7lrRLMMHTHNij4QhgZREVGcFCsNN5+QXOvT/ow/reJigyg4lggqcuF8cYYGEZM5jBRzAxONMl+IbEydjByn/lHcFJMMH48RXA2YsbJt9n4eRxmsFMMMXtbA3WszVI5iW83jfJVdtBgGCC0WSWzNaEZZMtMkq5wfM927IrQYZghpunn/f01aE/7OmIRmHGDNbPD3eurnQ9BAlmGL1MHhbbOWjwtvyaTW9r+jx4Q5rgARfjm5fBbYbB5c31yCE4d8L/0VGz6xEYo7EAAAAASUVORK5CYII=;" vertex="1" parent="1">
          <mxGeometry x="57.69" y="417.5" width="84.62" height="85" as="geometry" />
        </mxCell>
        <mxCell id="lnRaoJyihxXtsZaFXOxk-18" value="" style="shape=process;whiteSpace=wrap;html=1;backgroundOutline=1;strokeWidth=5;fillColor=none;" vertex="1" parent="1">
          <mxGeometry x="-147.5" y="430" width="97" height="60" as="geometry" />
        </mxCell>
        <mxCell id="lnRaoJyihxXtsZaFXOxk-19" value="&lt;b&gt;PROD&lt;/b&gt;" style="rounded=0;whiteSpace=wrap;html=1;strokeWidth=1;fillColor=none;opacity=0;" vertex="1" parent="1">
          <mxGeometry x="-160" y="430" width="120" height="60" as="geometry" />
        </mxCell>
        <mxCell id="lnRaoJyihxXtsZaFXOxk-20" value="&lt;b&gt;COMMIT&lt;/b&gt;" style="rounded=0;whiteSpace=wrap;html=1;strokeWidth=1;fillColor=none;opacity=0;" vertex="1" parent="1">
          <mxGeometry x="-60" y="202.75" width="120" height="60" as="geometry" />
        </mxCell>
        <mxCell id="lnRaoJyihxXtsZaFXOxk-21" value="&lt;b&gt;BUILD &amp;amp; PUSH&lt;/b&gt;" style="rounded=0;whiteSpace=wrap;html=1;strokeWidth=1;fillColor=none;opacity=0;" vertex="1" parent="1">
          <mxGeometry x="170" y="202.75" width="120" height="60" as="geometry" />
        </mxCell>
        <mxCell id="lnRaoJyihxXtsZaFXOxk-22" value="&lt;b&gt;PULL&lt;/b&gt;" style="rounded=0;whiteSpace=wrap;html=1;strokeWidth=1;fillColor=none;opacity=0;rotation=0;" vertex="1" parent="1">
          <mxGeometry x="149.5" y="317.5" width="120" height="60" as="geometry" />
        </mxCell>
        <mxCell id="lnRaoJyihxXtsZaFXOxk-28" style="edgeStyle=orthogonalEdgeStyle;rounded=0;orthogonalLoop=1;jettySize=auto;html=1;entryX=1;entryY=0.5;entryDx=0;entryDy=0;" edge="1" parent="1" source="lnRaoJyihxXtsZaFXOxk-26" target="lnRaoJyihxXtsZaFXOxk-13">
          <mxGeometry relative="1" as="geometry" />
        </mxCell>
        <mxCell id="lnRaoJyihxXtsZaFXOxk-26" value="" style="rounded=0;whiteSpace=wrap;html=1;strokeWidth=1;perimeterSpacing=1;fillColor=none;" vertex="1" parent="1">
          <mxGeometry x="280" y="400" width="120" height="120" as="geometry" />
        </mxCell>
        <mxCell id="lnRaoJyihxXtsZaFXOxk-27" value="Actor" style="shape=umlActor;verticalLabelPosition=bottom;verticalAlign=top;html=1;outlineConnect=0;strokeWidth=3;" vertex="1" parent="1">
          <mxGeometry x="325" y="417.5" width="30" height="60" as="geometry" />
        </mxCell>
        <mxCell id="lnRaoJyihxXtsZaFXOxk-29" value="&lt;b&gt;DEPLOY&lt;/b&gt;" style="rounded=0;whiteSpace=wrap;html=1;strokeWidth=1;fillColor=none;opacity=0;rotation=0;" vertex="1" parent="1">
          <mxGeometry x="160" y="410" width="120" height="60" as="geometry" />
        </mxCell>
        <mxCell id="lnRaoJyihxXtsZaFXOxk-30" value="&lt;b&gt;SSH&lt;/b&gt;" style="rounded=0;whiteSpace=wrap;html=1;strokeWidth=1;fillColor=none;opacity=0;rotation=0;" vertex="1" parent="1">
          <mxGeometry x="-60" y="408.5" width="120" height="60" as="geometry" />
        </mxCell>
      </root>
    </mxGraphModel>
  </diagram>
</mxfile>
